<svg width="600" height="600" viewBox="0 0 600 600" fill="none" xmlns="http://www.w3.org/2000/svg">
  <!-- Dog walking with leash -->
  <circle cx="300" cy="230" r="100" fill="#8B4513"/>
  <!-- Ears -->
  <ellipse cx="250" cy="190" rx="35" ry="70" fill="#654321" transform="rotate(-15 250 190)"/>
  <ellipse cx="350" cy="190" rx="35" ry="70" fill="#654321" transform="rotate(15 350 190)"/>
  <!-- Eyes -->
  <circle cx="270" cy="220" r="15" fill="#000"/>
  <circle cx="330" cy="220" r="15" fill="#000"/>
  <!-- Nose -->
  <circle cx="300" cy="250" r="18" fill="#000"/>
  <!-- Body -->
  <ellipse cx="300" cy="380" rx="120" ry="90" fill="#8B4513"/>
  <!-- Legs in walking position -->
  <line x1="250" y1="470" x2="240" y2="550" stroke="#654321" stroke-width="20" stroke-linecap="round"/>
  <line x1="290" y1="470" x2="300" y2="540" stroke="#654321" stroke-width="20" stroke-linecap="round"/>
  <line x1="310" y1="470" x2="300" y2="560" stroke="#654321" stroke-width="20" stroke-linecap="round"/>
  <line x1="350" y1="470" x2="360" y2="540" stroke="#654321" stroke-width="20" stroke-linecap="round"/>
  <!-- Tail wagging -->
  <path d="M 400 360 Q 450 320 480 380" stroke="#8B4513" stroke-width="18" fill="none" stroke-linecap="round"/>
  <!-- Leash -->
  <path d="M 200 100 Q 250 150 280 200" stroke="#FF6B6B" stroke-width="6" fill="none" stroke-linecap="round"/>
  <circle cx="200" cy="100" r="15" fill="#FF6B6B"/>
  <!-- Paw prints -->
  <g opacity="0.4">
    <circle cx="450" cy="450" r="12" fill="#654321"/>
    <circle cx="470" cy="460" r="8" fill="#654321"/>
    <circle cx="450" cy="470" r="8" fill="#654321"/>
  </g>
  <g opacity="0.4">
    <circle cx="120" cy="500" r="12" fill="#654321"/>
    <circle cx="140" cy="510" r="8" fill="#654321"/>
    <circle cx="120" cy="520" r="8" fill="#654321"/>
  </g>
</svg>
